<!-- icon666.com - MILLIONS OF FREE VECTOR ICONS --><svg version="1.1" id="Capa_1" xmlns="http://www.w3.org/2000/svg" xmlns:xlink="http://www.w3.org/1999/xlink" x="0px" y="0px" viewBox="0 0 480 480" style="enable-background:new 0 0 480 480;" xml:space="preserve"><path style="fill:#FF5252;" d="M312,112H168c-4.416,0-8-3.584-8-8V56c0-4.416,3.584-8,8-8h144c4.416,0,8,3.584,8,8v48 C320,108.416,316.416,112,312,112z"></path><path style="fill:#263238;" d="M312,116H168c-6.616,0-12-5.384-12-12V56c0-6.616,5.384-12,12-12h144c6.616,0,12,5.384,12,12v48 C324,110.616,318.616,116,312,116z M168,52c-2.2,0-4,1.792-4,4v48c0,2.208,1.8,4,4,4h144c2.2,0,4-1.792,4-4V56c0-2.208-1.8-4-4-4 H168z"></path><path style="fill:#FFD740;" d="M176,272H64c-4.416,0-8-3.584-8-8v-48c0-4.416,3.584-8,8-8h112c4.416,0,8,3.584,8,8v48 C184,268.416,180.416,272,176,272z"></path><path style="fill:#263238;" d="M176,276H64c-6.616,0-12-5.384-12-12v-48c0-6.616,5.384-12,12-12h112c6.616,0,12,5.384,12,12v48 C188,270.616,182.616,276,176,276z M64,212c-2.2,0-4,1.792-4,4v48c0,2.208,1.8,4,4,4h112c2.2,0,4-1.792,4-4v-48c0-2.208-1.8-4-4-4 H64z"></path><path style="fill:#4DB6AC;" d="M88,432H24c-4.416,0-8-3.584-8-8v-48c0-4.416,3.584-8,8-8h64c4.416,0,8,3.584,8,8v48 C96,428.416,92.416,432,88,432z"></path><path style="fill:#263238;" d="M88,436H24c-6.616,0-12-5.384-12-12v-48c0-6.616,5.384-12,12-12h64c6.616,0,12,5.384,12,12v48 C100,430.616,94.616,436,88,436z M24,372c-2.2,0-4,1.792-4,4v48c0,2.208,1.8,4,4,4h64c2.2,0,4-1.792,4-4v-48c0-2.208-1.8-4-4-4H24z"></path><path style="fill:#4DB6AC;" d="M216,432h-64c-4.416,0-8-3.584-8-8v-48c0-4.416,3.584-8,8-8h64c4.416,0,8,3.584,8,8v48 C224,428.416,220.416,432,216,432z"></path><g><path style="fill:#263238;" d="M216,436h-64c-6.616,0-12-5.384-12-12v-48c0-6.616,5.384-12,12-12h64c6.616,0,12,5.384,12,12v48 C228,430.616,222.616,436,216,436z M152,372c-2.2,0-4,1.792-4,4v48c0,2.208,1.8,4,4,4h64c2.2,0,4-1.792,4-4v-48c0-2.208-1.8-4-4-4 H152z"></path><path style="fill:#263238;" d="M240,164c-2.208,0-4-1.792-4-4v-48c0-2.208,1.792-4,4-4c2.208,0,4,1.792,4,4v48 C244,162.208,242.208,164,240,164z"></path><path style="fill:#263238;" d="M360,212c-2.208,0-4-1.792-4-4v-44H124v44c0,2.208-1.792,4-4,4s-4-1.792-4-4v-48 c0-2.208,1.792-4,4-4h240c2.208,0,4,1.792,4,4v48C364,210.208,362.208,212,360,212z"></path><path style="fill:#263238;" d="M120,324c-2.208,0-4-1.792-4-4v-48c0-2.208,1.792-4,4-4s4,1.792,4,4v48 C124,322.208,122.208,324,120,324z"></path><path style="fill:#263238;" d="M184,372c-2.208,0-4-1.792-4-4v-44H60v44c0,2.208-1.792,4-4,4s-4-1.792-4-4v-48c0-2.208,1.792-4,4-4 h128c2.208,0,4,1.792,4,4v48C188,370.208,186.208,372,184,372z"></path></g><path style="fill:#FFD740;" d="M416,272H304c-4.416,0-8-3.584-8-8v-48c0-4.416,3.584-8,8-8h112c4.416,0,8,3.584,8,8v48 C424,268.416,420.416,272,416,272z"></path><path style="fill:#263238;" d="M416,276H304c-6.616,0-12-5.384-12-12v-48c0-6.616,5.384-12,12-12h112c6.616,0,12,5.384,12,12v48 C428,270.616,422.616,276,416,276z M304,212c-2.2,0-4,1.792-4,4v48c0,2.208,1.8,4,4,4h112c2.2,0,4-1.792,4-4v-48c0-2.208-1.8-4-4-4 H304z"></path><path style="fill:#4DB6AC;" d="M328,432h-64c-4.416,0-8-3.584-8-8v-48c0-4.416,3.584-8,8-8h64c4.416,0,8,3.584,8,8v48 C336,428.416,332.416,432,328,432z"></path><path style="fill:#263238;" d="M328,436h-64c-6.616,0-12-5.384-12-12v-48c0-6.616,5.384-12,12-12h64c6.616,0,12,5.384,12,12v48 C340,430.616,334.616,436,328,436z M264,372c-2.2,0-4,1.792-4,4v48c0,2.208,1.8,4,4,4h64c2.2,0,4-1.792,4-4v-48c0-2.208-1.8-4-4-4 H264z"></path><path style="fill:#4DB6AC;" d="M456,432h-64c-4.416,0-8-3.584-8-8v-48c0-4.416,3.584-8,8-8h64c4.416,0,8,3.584,8,8v48 C464,428.416,460.416,432,456,432z"></path><g><path style="fill:#263238;" d="M456,436h-64c-6.616,0-12-5.384-12-12v-48c0-6.616,5.384-12,12-12h64c6.616,0,12,5.384,12,12v48 C468,430.616,462.616,436,456,436z M392,372c-2.2,0-4,1.792-4,4v48c0,2.208,1.8,4,4,4h64c2.2,0,4-1.792,4-4v-48c0-2.208-1.8-4-4-4 H392z"></path><path style="fill:#263238;" d="M360,324c-2.208,0-4-1.792-4-4v-48c0-2.208,1.792-4,4-4s4,1.792,4,4v48 C364,322.208,362.208,324,360,324z"></path><path style="fill:#263238;" d="M424,372c-2.208,0-4-1.792-4-4v-44H300v44c0,2.208-1.792,4-4,4s-4-1.792-4-4v-48 c0-2.208,1.792-4,4-4h128c2.208,0,4,1.792,4,4v48C428,370.208,426.208,372,424,372z"></path><path style="fill:#263238;" d="M116,84h-8c-2.208,0-4-1.792-4-4s1.792-4,4-4h8c2.208,0,4,1.792,4,4S118.208,84,116,84z"></path><path style="fill:#263238;" d="M92,84H4c-2.208,0-4-1.792-4-4s1.792-4,4-4h88c2.208,0,4,1.792,4,4S94.208,84,92,84z"></path><path style="fill:#263238;" d="M372,84h-8c-2.208,0-4-1.792-4-4s1.792-4,4-4h8c2.208,0,4,1.792,4,4S374.208,84,372,84z"></path><path style="fill:#263238;" d="M476,84h-88c-2.208,0-4-1.792-4-4s1.792-4,4-4h88c2.208,0,4,1.792,4,4S478.208,84,476,84z"></path></g></svg>