<!-- icon666.com - MILLIONS OF FREE VECTOR ICONS --><svg id="Layer_1" enable-background="new 0 0 512 512" viewBox="0 0 512 512" xmlns="http://www.w3.org/2000/svg"><g id="_x32_76_x2C__Html_x2C__programming_interface_x2C__source_code_x2C__gear"><g><path d="m219.563 228.929c-3.906-3.906-10.234-3.906-14.141 0l-20 20c-3.901 3.901-3.906 10.24 0 14.141l20 20c3.906 3.906 10.234 3.906 14.141 0s3.906-10.239 0-14.141l-12.929-12.929 12.93-12.93c3.906-3.902 3.906-10.239-.001-14.141z"></path><path d="m285.423 228.929c-3.905 3.901-3.905 10.239 0 14.141l12.93 12.93-12.93 12.93c-3.905 3.901-3.905 10.234 0 14.141 3.906 3.908 10.234 3.906 14.142 0l20-20c3.905-3.9 3.905-10.239 0-14.14l-20-20c-3.908-3.908-10.236-3.908-14.142-.002z"></path><path d="m265.657 216.512c-5.244-1.748-10.898 1.084-12.646 6.328l-20 59.996c-1.748 5.239 1.084 10.903 6.318 12.65 5.244 1.744 10.908-1.084 12.656-6.327l20-60c1.74-5.235-1.092-10.899-6.328-12.647z"></path><path d="m481.674 224.486-58.848-13.145c-4.033-15.41-10.166-30.206-18.291-44.122l32.313-51.04c2.5-3.955 1.925-9.111-1.377-12.422l-30.731-30.732c-3.32-3.311-8.486-3.882-12.433-1.372l-51.017 32.388c-13.73-8.066-28.525-14.219-44.131-18.345l-13.154-58.873c-1.016-4.57-5.078-7.822-9.756-7.822h-43.51c-4.683 0-8.735 3.252-9.761 7.822l-13.148 58.873c-15.611 4.126-30.401 10.278-44.126 18.345l-51.016-32.388c-3.955-2.51-9.121-1.938-12.432 1.372l-30.732 30.732c-3.311 3.311-3.887 8.467-1.382 12.422l32.314 51.04c-8.13 13.916-14.263 28.711-18.286 44.122l-58.853 13.145c-4.57 1.021-7.817 5.073-7.817 9.761v43.506c0 4.683 3.247 8.74 7.817 9.761l58.848 13.146c4.043 15.508 10.171 30.308 18.286 44.136l-32.31 51.025c-2.505 3.949-1.929 9.111 1.382 12.422l30.732 30.732c3.306 3.306 8.467 3.877 12.422 1.377l51.036-32.314c13.916 8.13 28.711 14.263 44.122 18.292l10.425 46.67h-151.764c-5.527 0-10 4.478-10 10 0 5.521 4.473 10 10 10h370.002c5.518 0 10-4.479 10-10 0-5.522-4.482-10-10-10h-149.768l10.42-46.67c15.509-4.043 30.304-10.172 44.142-18.282l51.026 32.306c3.944 2.5 9.11 1.929 12.422-1.377l30.731-30.732c3.302-3.312 3.877-8.472 1.377-12.423l-32.313-51.039c8.125-13.916 14.258-28.711 18.291-44.121l58.848-13.145c4.57-1.021 7.822-5.078 7.822-9.762v-43.506c0-4.69-3.252-8.743-7.822-9.763zm-12.178 45.254-57.109 12.754c-3.789.85-6.737 3.804-7.578 7.593-3.877 17.451-10.771 34.087-20.498 49.453-2.061 3.267-2.061 7.433.011 10.698l31.348 49.517-19.414 19.419-49.521-31.354c-3.272-2.074-7.452-2.069-10.725.011-15.205 9.678-31.836 16.567-49.424 20.479-3.789.84-6.748 3.793-7.598 7.582l-12.754 57.105h-27.48l-12.754-57.104c-.85-3.789-3.804-6.742-7.588-7.582-17.451-3.877-34.092-10.771-49.458-20.494-3.267-2.061-7.427-2.061-10.698.006l-49.517 31.353-19.419-19.42 31.358-49.518c2.07-3.275 2.061-7.45-.02-10.723-9.673-15.205-16.563-31.836-20.474-49.429-.84-3.789-3.794-6.743-7.583-7.593l-57.101-12.753v-27.481l57.1-12.759c3.789-.845 6.743-3.799 7.583-7.588 3.882-17.451 10.776-34.092 20.494-49.454 2.065-3.271 2.061-7.432 0-10.698l-31.358-49.517 19.414-19.414 49.512 31.436c3.281 2.08 7.471 2.08 10.742-.01 15.059-9.619 31.7-16.543 49.468-20.576 3.765-.859 6.704-3.804 7.544-7.573l12.754-57.105h27.479l12.754 57.105c.851 3.77 3.779 6.714 7.55 7.573 17.764 4.033 34.404 10.957 49.463 20.576 3.271 2.09 7.461 2.095 10.743.01l49.521-31.436 19.404 19.414-31.348 49.517c-2.07 3.267-2.07 7.427-.011 10.698 9.728 15.361 16.621 32.002 20.498 49.454.841 3.789 3.789 6.743 7.578 7.588l57.109 12.759v27.481z"></path><path d="m252.63 122.444c-73.716 0-133.692 59.976-133.692 133.692 0 73.565 59.976 133.419 133.692 133.419 73.428 0 133.419-59.996 133.419-133.419 0-73.716-59.855-133.692-133.419-133.692zm0 247.111c-62.686 0-113.692-50.879-113.692-113.417 0-62.69 51.006-113.692 113.692-113.692 62.539 0 113.419 51.001 113.419 113.692 0 62.538-50.88 113.417-113.419 113.417z"></path><path d="m252.591 155.086c-55.693 0-101.011 45.313-101.011 101.011 0 55.59 45.318 100.816 101.011 100.816 55.597 0 100.821-45.226 100.821-100.816 0-55.698-45.224-101.011-100.821-101.011zm0 181.827c-44.668 0-81.011-36.255-81.011-80.816 0-44.668 36.343-81.011 81.011-81.011 44.562 0 80.82 36.343 80.82 81.011 0 44.561-36.261 80.816-80.82 80.816z"></path><path d="m76.496 352.997c0-16.543-13.457-30-30-30s-30 13.457-30 30 13.457 30 30 30 30-13.457 30-30zm-30 10c-5.518 0-10-4.487-10-10s4.482-10 10-10c5.513 0 10 4.487 10 10s-4.487 10-10 10z"></path><path d="m466.498 182.996c16.543 0 30-13.457 30-30s-13.457-30-30-30-30 13.457-30 30 13.457 30 30 30zm0-40c5.508 0 10 4.482 10 10 0 5.513-4.492 10-10 10-5.518 0-10-4.487-10-10 0-5.517 4.482-10 10-10z"></path><path d="m156.497 62.996c5.518 0 10-4.478 10-10s-4.482-10-10-10c-5.527 0-10 4.478-10 10s4.472 10 10 10z"></path><path d="m46.496 162.996c5.518 0 10-4.478 10-10s-4.482-10-10-10c-5.527 0-10 4.478-10 10s4.473 10 10 10z"></path><path d="m446.498 332.997c-5.527 0-10 4.478-10 10s4.473 10 10 10c5.518 0 10-4.478 10-10s-4.482-10-10-10z"></path><path d="m326.497 442.998c0 5.521 4.473 10 10 10 5.518 0 10.001-4.479 10.001-10 0-5.523-4.483-10-10.001-10-5.527 0-10 4.477-10 10z"></path><path d="m466.498 472.998c-5.527 0-10 4.478-10 10 0 5.521 4.473 10 10 10 5.518 0 10-4.479 10-10 0-5.522-4.482-10-10-10z"></path><path d="m36.496 472.998c-5.527 0-10 4.478-10 10 0 5.521 4.473 10 10 10 5.518 0 10-4.479 10-10 0-5.522-4.482-10-10-10z"></path></g></g></svg>